<?xml version="1.0" encoding="utf-8"?>
<!-- Generator: Adobe Illustrator 21.0.0, SVG Export Plug-In . SVG Version: 6.00 Build 0)  -->
<svg version="1.1" id="Layer_1" xmlns="http://www.w3.org/2000/svg" xmlns:xlink="http://www.w3.org/1999/xlink" x="0px" y="0px"
	 viewBox="0 0 140 32" enable-background="new 0 0 140 32" xml:space="preserve">
<g>
	<path fill="#FFFFFF" d="M25.5,28.2h15.7V30H23v-1.6L38.1,6.2H23.5V4.4h17.2v1.5L25.5,28.2z"/>
	<path fill="#FFFFFF" d="M48,30h-0.9V4.4H48V30z"/>
	<path fill="#FFFFFF" d="M57.7,19.3V30h-2.1V4.4h8.8c2.7,0,4.8,0.7,6.2,2s2.2,3.2,2.2,5.4c0,2.3-0.7,4.1-2.2,5.4s-3.5,2-6.2,2H57.7z
		 M57.7,17.5h6.7c2.1,0,3.7-0.5,4.8-1.6s1.6-2.4,1.6-4.1c0-1.6-0.5-3-1.6-4.1s-2.6-1.6-4.8-1.6h-6.7V17.5z"/>
	<path fill="#FFFFFF" d="M80,19.3V30h-2.1V4.4h8.8c2.7,0,4.8,0.7,6.2,2s2.2,3.2,2.2,5.4c0,2.3-0.7,4.1-2.2,5.4s-3.5,2-6.2,2H80z
		 M80,17.5h6.7c2.1,0,3.7-0.5,4.8-1.6s1.6-2.4,1.6-4.1c0-1.6-0.5-3-1.6-4.1s-2.6-1.6-4.8-1.6H80V17.5z"/>
	<path fill="#FFFFFF" d="M107.7,18.6l7.9-14.2h2.4l-9.3,16.2V30h-2.1v-9.5L97.4,4.4h2.4L107.7,18.6z"/>
</g>
</svg>
